<?xml version="1.0" standalone="no"?>
<!DOCTYPE svg PUBLIC "-//W3C//DTD SVG 20010904//EN"
 "http://www.w3.org/TR/2001/REC-SVG-20010904/DTD/svg10.dtd">
<svg version="1.0" xmlns="http://www.w3.org/2000/svg"
 width="400.000000pt" height="400.000000pt" viewBox="0 0 400.000000 400.000000"
 preserveAspectRatio="xMidYMid meet">
<metadata>
Created by potrace 1.11, written by Peter Selinger 2001-2013
</metadata>
<g transform="translate(0.000000,400.000000) scale(0.100000,-0.100000)"
fill="#000000" stroke="none">
<path d="M1940 3556 c-19 -8 -79 -34 -133 -60 -55 -25 -100 -46 -102 -46 -1 0
-67 -31 -146 -68 -79 -38 -160 -76 -179 -85 -19 -8 -84 -39 -145 -67 -60 -28
-130 -61 -155 -72 -25 -11 -88 -40 -140 -65 -116 -55 -204 -96 -335 -157 -126
-59 -127 -59 -139 -79 -21 -33 6 -53 179 -132 158 -73 596 -277 735 -342 47
-22 117 -55 155 -73 147 -68 223 -104 315 -148 83 -39 104 -45 170 -48 71 -2
80 0 170 43 190 91 471 223 476 223 2 0 74 34 160 75 86 41 157 75 159 75 2 0
56 25 121 56 66 30 160 74 209 97 227 105 270 130 270 157 0 27 -46 53 -275
159 -52 25 -138 64 -190 89 -52 24 -122 57 -155 72 -61 28 -181 84 -315 147
-41 20 -102 48 -135 63 -33 15 -95 44 -138 64 -42 20 -82 36 -87 36 -6 0 -10
5 -10 12 0 6 -2 9 -5 6 -3 -3 -45 14 -93 37 -96 46 -175 56 -242 31z"/>
<path d="M795 2155 c-22 -6 -49 -17 -60 -23 -27 -16 -179 -86 -186 -87 -18 -1
-80 -42 -84 -56 -10 -30 6 -46 81 -83 41 -20 76 -36 78 -36 2 0 62 -28 133
-61 70 -34 184 -88 253 -119 69 -32 168 -78 220 -103 52 -24 120 -56 150 -69
30 -14 93 -44 140 -66 456 -214 423 -200 489 -206 19 -2 51 1 71 5 30 7 237
101 605 274 44 21 107 50 140 65 59 27 125 58 295 138 47 21 117 54 155 72 80
37 224 104 272 127 34 16 47 40 38 65 -6 16 -289 155 -335 166 -14 3 -48 5
-76 5 -53 0 -91 -16 -347 -137 -65 -31 -120 -56 -122 -56 -1 0 -67 -31 -146
-69 -79 -37 -166 -78 -194 -91 -27 -12 -87 -40 -133 -62 -98 -46 -178 -78
-183 -74 -2 2 -27 6 -56 10 -32 4 -95 27 -165 60 -169 80 -228 106 -238 106
-6 0 -10 5 -10 10 0 6 -6 10 -13 10 -7 0 -33 10 -58 21 -103 50 -284 135 -426
200 -162 75 -214 86 -288 64z"/>
<path d="M760 1276 c-287 -126 -318 -145 -294 -183 12 -19 36 -32 169 -94 61
-28 137 -64 170 -79 66 -31 172 -80 280 -130 122 -57 517 -241 590 -275 39
-18 115 -54 170 -81 94 -45 105 -48 180 -48 76 0 86 3 185 51 112 54 237 112
245 113 2 1 37 17 77 37 40 19 170 80 288 135 118 56 253 119 300 141 185 86
215 100 220 102 9 2 204 94 219 103 23 13 35 38 28 56 -4 10 -64 44 -134 77
-71 33 -141 68 -158 77 -22 12 -52 17 -110 16 -75 -1 -87 -4 -190 -53 -121
-58 -196 -94 -385 -181 -69 -32 -168 -78 -220 -103 -52 -25 -120 -56 -150 -70
-30 -13 -77 -35 -104 -48 -34 -16 -67 -23 -110 -23 -64 0 -75 4 -361 139 -49
23 -115 54 -145 68 -86 39 -287 133 -465 217 -139 66 -209 75 -295 36z"/>
</g>
</svg>
